<svg id="Logo" xmlns="http://www.w3.org/2000/svg" viewBox="0 0 624.38 265.55"><defs><style>.cls-1{fill:#ef7d18;}.cls-2{fill:#fff;}</style></defs><title>CoronaHelfer-Logo</title><g id="Logo-2" data-name="Logo"><g id="Corona"><path class="cls-1" d="M232.06,239c9.4-17.32,7.33,38.49,7.33,38.49S213,306.77,178.33,306.77c-39.59,0-69.58-30.38-69.58-70.95s30-71,69.58-71c32.93,0,50.77,21.56,50.77,21.56l-15.88,15.49a47.18,47.18,0,0,0-34.89-15.09c-27,0-45.66,22.54-45.66,49s18.62,49,45.66,49C213.3,284.82,227.85,246.8,232.06,239Z" transform="translate(-108.75 -164.86)"/><path class="cls-1" d="M327.49,258c0,27.25-21.95,48.81-49.59,48.81S228.31,285.21,228.31,258c0-27.44,22-48.8,49.59-48.8S327.49,230.52,327.49,258Zm-23.91,0c0-14.5-9.8-26.85-25.68-26.85S252.23,243.46,252.23,258s9.8,26.86,25.67,26.86S303.58,272.47,303.58,258Z" transform="translate(-108.75 -164.86)"/><path class="cls-1" d="M396.68,212.1l-8.24,21.17a27,27,0,0,0-11.17-2.16c-14.3,0-20.77,12.55-20.77,12.55v60.76H333V211.51h22.34V225s8-15.88,25.28-15.88A50.62,50.62,0,0,1,396.68,212.1Z" transform="translate(-108.75 -164.86)"/><path class="cls-1" d="M486.84,258c0,27.25-22,48.81-49.59,48.81S387.66,285.21,387.66,258c0-27.44,21.95-48.8,49.59-48.8S486.84,230.52,486.84,258Zm-23.92,0c0-14.5-9.79-26.85-25.67-26.85S411.57,243.46,411.57,258s9.8,26.86,25.68,26.86S462.92,272.47,462.92,258Z" transform="translate(-108.75 -164.86)"/><path class="cls-1" d="M576.21,244.24v60.18H552.69v-54.3c0-13.32-8.23-19-18.42-19-12.15,0-18.42,12-18.42,12v61.35l-23.52,8.44V211.51h21.95V225a32.1,32.1,0,0,1,27.83-15.88C560.14,209.16,576.21,221.9,576.21,244.24Z" transform="translate(-108.75 -164.86)"/><path class="cls-1" d="M669.51,243.85v60.57H647.75V292.66s-9.6,14.11-30.57,14.11c-17.45,0-33.52-11.37-33.52-31.17,0-17.83,16.27-30.77,36.46-30.77,17,0,25.87,6.67,25.87,6.67v-5.3c0-12.15-11.76-16.07-20-16.07-13.53,0-27.84,6.86-27.84,6.86l-7.64-19.4s17.25-8.43,36.65-8.43C653.83,209.16,669.51,222.68,669.51,243.85ZM646,276.39v-9.61s-8.43-4.7-21.17-4.7c-7.25,0-17.25,3.14-17.25,13.13,0,9.8,9.61,12,16.86,12C638.54,287.17,646,276.39,646,276.39Z" transform="translate(-108.75 -164.86)"/></g><path id="Herz" class="cls-1" d="M709.87,389.51a13.63,13.63,0,0,0-19.28,19.27l19.28,19.28,19.27-19.28a13.63,13.63,0,0,0-19.27-19.27Z" transform="translate(-108.75 -164.86)"/><g id="Helfer"><path class="cls-2" d="M311,290.86h23.52v137.2H311v-59h-58.6v59H228.92V290.86h23.52v55.86H311Z" transform="translate(-108.75 -164.86)"/><path class="cls-2" d="M436.28,381.22c0,1.76,0,5.29-.19,8.82H366.71c1.76,8.23,11.36,18.81,26.06,18.81,16.27,0,25.48-9.41,25.48-9.41L430,417.08a59.5,59.5,0,0,1-37.24,13.33c-28.22,0-50-21.56-50-48.8s19.8-48.81,46.65-48.81C414.92,332.8,436.28,352.6,436.28,381.22ZM412.76,373c-.39-8-7.83-18.81-23.32-18.81-15.09,0-21.95,10.58-22.73,18.81Z" transform="translate(-108.75 -164.86)"/><path class="cls-2" d="M628.36,381.22c0,1.76,0,5.29-.2,8.82H558.78c1.76,8.23,11.37,18.81,26.07,18.81,16.27,0,25.48-9.41,25.48-9.41l11.76,17.64a59.5,59.5,0,0,1-37.24,13.33c-28.23,0-50-21.56-50-48.8s19.79-48.81,46.65-48.81C607,332.8,628.36,352.6,628.36,381.22ZM604.84,373c-.39-8-7.84-18.81-23.32-18.81-15.1,0-22,10.58-22.74,18.81Z" transform="translate(-108.75 -164.86)"/><path class="cls-2" d="M538.59,335.26v-.1H515.86V313.6c0-11.57,7.64-14.12,12.15-14.12a16.25,16.25,0,0,1,9.41,2.75l8.82-19.8s-7.65-4.9-20.58-4.9c-15.09,0-33.32,9-33.32,34.89v22.74H473.91v21.16h18.43v71.74h23.52V356.32h8.88A47.54,47.54,0,0,1,538.59,335.26Z" transform="translate(-108.75 -164.86)"/><path class="cls-2" d="M697.55,335.74l-8.24,21.17a27.06,27.06,0,0,0-11.17-2.15c-14.31,0-20.77,12.54-20.77,12.54v60.76H633.85v-92.9h22.34v13.52s8-15.88,25.28-15.88A50.62,50.62,0,0,1,697.55,335.74Z" transform="translate(-108.75 -164.86)"/><g id="l"><path class="cls-2" d="M444.52,303.32V428.06H468V326.75h0A23.45,23.45,0,0,1,444.52,303.32Z" transform="translate(-108.75 -164.86)"/><path class="cls-2" d="M468,279.88h0Z" transform="translate(-108.75 -164.86)"/><path class="cls-2" d="M468,279.88a23.44,23.44,0,1,0,0,46.87h0V279.88Z" transform="translate(-108.75 -164.86)"/></g></g></g></svg>