<svg xmlns="http://www.w3.org/2000/svg" width="54" height="54" viewBox="0 0 54 54"><g transform="translate(-2 -2)"><path d="M54.2,32.841l-.237.99H32.837l-.26-1.09a.9.9,0,0,0-.877-.684H27.2a4.472,4.472,0,0,0-4.5-4.434H20v-.887a7.084,7.084,0,0,0-3.856-6.277A6.185,6.185,0,0,0,19.1,15.208a6.3,6.3,0,0,0-12.6,0,6.185,6.185,0,0,0,2.956,5.252A7.084,7.084,0,0,0,5.6,26.736v8.019a4.372,4.372,0,0,0,1.319,3.136L5.637,44.2,2.077,52.092a.881.881,0,0,0,.359,1.121l4.5,2.66A.906.906,0,0,0,7.4,56a.9.9,0,0,0,.8-.49l4.5-8.868a.9.9,0,0,0,.077-.222l.7-3.452.3.232L16.42,55.3a.9.9,0,0,0,.88.7h5.4a.906.906,0,0,0,.689-.317.874.874,0,0,0,.2-.724l-2.7-15.075a.883.883,0,0,0-.081-.242L17.856,33.83H30.987L34.4,48.123v3.443a2.684,2.684,0,0,0,2.7,2.66h1.066a2.7,2.7,0,0,0,5.069,0h3.932a2.66,2.66,0,1,0,0-1.774H43.234a2.7,2.7,0,0,0-5.069,0H37.1a.894.894,0,0,1-.9-.887v-2.66H51.5a.9.9,0,0,0,.877-.684l3.6-15.075a.907.907,0,0,0,.023-.2v-.887H54.2ZM8.3,15.208a4.5,4.5,0,1,1,4.5,4.434A4.472,4.472,0,0,1,8.3,15.208Zm2.741,30.747L7.03,53.86,4.047,52.1l3.277-7.264a.9.9,0,0,0,.059-.186l1.117-5.5,3.4,2.6Zm4.459-13.9a.894.894,0,0,1-.9-.887V25.849H12.8V31.17a2.684,2.684,0,0,0,2.7,2.66h.344l3.292,6.489,2.491,13.908h-3.6L15.48,42.513A.885.885,0,0,0,15.153,42l-6.71-5.142a2.668,2.668,0,0,1-1.043-2.1V26.736a5.4,5.4,0,0,1,10.8,0v1.774a.893.893,0,0,0,.9.887h3.6a2.684,2.684,0,0,1,2.7,2.66Zm34.2,20.4a.887.887,0,1,1-.9.887A.894.894,0,0,1,49.7,52.453Zm-9,0a.887.887,0,1,1-.9.887A.894.894,0,0,1,40.7,52.453ZM53.54,35.6l-.635,2.66H33.9L33.26,35.6ZM34.319,40.038H52.481l-.635,2.66H34.954Zm1.694,7.094-.635-2.66H51.423l-.635,2.66Z"/><path d="M32,16V4h3V2H31a1,1,0,0,0-1,1V15.586L27.285,18.3A2.951,2.951,0,0,0,26,18a3,3,0,1,0,3,3,2.951,2.951,0,0,0-.3-1.285l3.008-3.008A1,1,0,0,0,32,16Zm-6,6a1,1,0,1,1,1-1A1,1,0,0,1,26,22Z" transform="translate(-2.625)"/><path d="M37,2h4V4H37Z" transform="translate(-3.75)"/><path d="M37,6H48V8H37Z" transform="translate(-4.286)"/><path d="M55,10h7v2H55Z" transform="translate(-6)"/><path d="M37,14H50v2H37Z" transform="translate(-4.468 -1.241)"/><path d="M43,2H53V4H43Z" transform="translate(-6)"/><path d="M55,2h7V4H55Z" transform="translate(-6)"/><path d="M50,6H62V8H50Z" transform="translate(-6)"/><path d="M37,10h2v2H37Z" transform="translate(-3.621)"/><path d="M41,10H53v2H41Z" transform="translate(-6)"/><path d="M52,14h2v2H52Z" transform="translate(-6 -1.241)"/><path d="M56,14h2v2H56Z" transform="translate(-6 -1.241)"/><path d="M60,14h2v2H60Z" transform="translate(-6 -1.241)"/><path d="M52,22V20a1,1,0,0,0-1-1H46a1,1,0,0,0-1,1v6H41a1,1,0,0,0-1,1v4H37v2H60V31H57V23a1,1,0,0,0-1-1Zm-5-1h3V31H47V21Zm-5,7h3v3H42Zm10,3V24h3v7Z" transform="translate(-6 -2.217)"/></g></svg>