<svg xmlns="http://www.w3.org/2000/svg" width="149.277" height="142.026" viewBox="0 0 149.277 142.026"><defs><style>.a,.b,.c{fill:#ef7d18;}.a{stroke:#fff;stroke-linejoin:round;stroke-width:4.09px;}.a,.b{fill-rule:evenodd;}</style></defs><g transform="translate(0.468 299.116)"><g transform="translate(1.031 -215.53)"><path class="a" d="M337.118,84.631a4.041,4.041,0,0,1,2.255,4.289,2.892,2.892,0,0,1-1.837,2.389c-2.448,1.3-5.193,1.828-7.83,2.6a6.535,6.535,0,0,1-2.941.147c-1.759-.186-3.515-.4-5.274-.591a3.451,3.451,0,0,1-2.722-1.8,1.769,1.769,0,0,1,.571-2.1c.92-.9,2.232-1.142,3.375-1.648,1.616-.64,3.264-1.185,4.922-1.7a17.851,17.851,0,0,0,3.179-1.541,8.381,8.381,0,0,1,4.1-.545,7,7,0,0,1,2.2.486Z" transform="translate(-226.888 -60.481)"/><path class="a" d="M375.021,79.625a5.019,5.019,0,0,1,1.831,1.345,2.873,2.873,0,0,1,.689,2.572,2.75,2.75,0,0,1-2.2,1.72,9.707,9.707,0,0,0-2.751.692c-.806.359-1.508.9-2.288,1.306A31.2,31.2,0,0,1,364.466,90c-2.418.966-4.85,1.9-7.347,2.65a53.721,53.721,0,0,1-7.34,2.02,6.061,6.061,0,0,1-5.013-1.629,1.887,1.887,0,0,1,.623-2.389,10.252,10.252,0,0,1,3.362-1.368c3.29-1.022,6.6-1.994,9.811-3.254,1.707-.92,3.339-1.978,4.958-3.049a17.627,17.627,0,0,1,4.364-2.951c1.449-.6,2.963-1.384,4.579-1.126a10.122,10.122,0,0,1,2.559.718Z" transform="translate(-245.342 -56.736)"/><path class="a" d="M445.6,94.05a6.937,6.937,0,0,0-3.518,2.334c-2.6,2.683-4.69,5.8-7.089,8.65-1.341,1.671-3.251,2.725-4.824,4.142a1.834,1.834,0,0,0-.7,1.821,1.288,1.288,0,0,0,1.449.885c.63-.1,1.2-.418,1.821-.574a13.518,13.518,0,0,0,3.515-1.7,57.314,57.314,0,0,1,5.382-2.213c.888-.353,1.753-.757,2.608-1.185a21.905,21.905,0,0,0,4.566-2.438,6.5,6.5,0,0,0,2.389-3.189,4.906,4.906,0,0,0-.7-4.5,6.3,6.3,0,0,0-2.973-1.812,5.468,5.468,0,0,0-1.935-.222Z" transform="translate(-305.774 -67.544)"/><path class="a" d="M159.38,83.854a3.618,3.618,0,0,1,2.513,2.21,15.717,15.717,0,0,1-1.364,4.883,32.988,32.988,0,0,1-1.779,3.378,26.932,26.932,0,0,1-5.307,6.319,31.2,31.2,0,0,1-4.866,3.564c-3.117,1.939-6.358,3.665-9.583,5.415a31.878,31.878,0,0,1-6.681,2.725,30.942,30.942,0,0,1-6.557.79c-5.519.251-11.032.659-16.541,1.061-4.429.33-8.809,1.113-13.2,1.733a20.244,20.244,0,0,1-5.375.346,18.276,18.276,0,0,1-4.308-1.439,36.251,36.251,0,0,0-5.692-2.086c-5.251-1.364-10.535-2.611-15.751-4.106-4.8-1.338-9.583-2.761-14.413-3.982a39.077,39.077,0,0,0-4.791-.862c-3.835-.568-7.716-.744-11.554-1.283a3.5,3.5,0,0,1-2.376-1.423,7.234,7.234,0,0,1-.96-2.357,6.511,6.511,0,0,1,.307-4.521,3.4,3.4,0,0,1,3.3-1.485c2.66.147,5.353.584,8,.069,2.973-.464,5.9-1.155,8.842-1.789a35.815,35.815,0,0,1,6.436-1.048,33.628,33.628,0,0,1,5.614-.193,13.437,13.437,0,0,1,4.09,1.537,17.2,17.2,0,0,0,4.106.565,33.769,33.769,0,0,1,3.655.95,15.326,15.326,0,0,0,2.9.682c.93.157,1.883.114,2.813.264a6.75,6.75,0,0,1,2.347.64c2.089.741,4.3,1.044,6.371,1.838a49.7,49.7,0,0,0,5.085,1.609c1,.261,1.942.672,2.918.992,2.552.653,5.1,1.319,7.663,1.955,2.774.659,5.548,1.315,8.309,2.024,1.975.522,3.884,1.253,5.826,1.883a11.428,11.428,0,0,0,4.325.738,1.9,1.9,0,0,0,1.74-1.25c.5-1.71-.421-3.466-.039-5.193a1.343,1.343,0,0,1,.907-1.165c.986-.418,2.066-.535,3.061-.92q5.836-1.846,11.58-3.959a19.7,19.7,0,0,0,5.091-3.1,68.346,68.346,0,0,1,8.3-5.8,5.93,5.93,0,0,1,4.253-.486c.268.072.525.183.79.271Z" transform="translate(-21.756 -59.952)"/><path class="a" d="M40.857,4.63C45,6.474,49.238,8.165,53.194,10.41a68.565,68.565,0,0,1,6.4,4.348c1.456,1,2.608,2.393,4.122,3.316,1.332.79,2.931.937,4.272,1.71a18.365,18.365,0,0,0,4.563,1.74A16,16,0,0,1,76.073,22.6a39.033,39.033,0,0,0,4.334,1.688c1.968.65,3.933,1.315,5.921,1.906,3.117,1.071,5.839,2.98,8.714,4.537A36.527,36.527,0,0,1,103.6,37.27a9.89,9.89,0,0,1,2.33,4.495,8.125,8.125,0,0,1-.157,3.757,5.587,5.587,0,0,1-2.33,3.408,2.677,2.677,0,0,1-2.3.082c-2.67-.816-5.219-1.981-7.846-2.921A43.127,43.127,0,0,0,87,44.167c-4.83-1.018-9.592-2.327-14.38-3.538-5.4-1.384-10.806-2.778-16.253-3.989C50.952,35.482,45.553,34.2,40.08,33.334a26.749,26.749,0,0,0-7.2.088,35.98,35.98,0,0,0-6.113,1.342,10.4,10.4,0,0,0-3.678,1.723A9.9,9.9,0,0,0,21.3,39.8a11.234,11.234,0,0,1-2.334,4.1,4.839,4.839,0,0,1-2.993.93,48.837,48.837,0,0,1-6.7-.02,2.475,2.475,0,0,1-1.834-2.291c-.255-2.363-.408-4.739-.617-7.109-.336-3.868-.565-7.755-1.208-11.591a49.537,49.537,0,0,0-1.86-7.145C3.167,14.807,2.573,12.94,2.07,11.05A1.371,1.371,0,0,1,3,9.558c1.368-.627,2.839-.973,4.256-1.466,6.159-1.952,12.278-4.034,18.538-5.634a15.29,15.29,0,0,1,6.961-.039,77.351,77.351,0,0,1,7.621,2.034l.483.176Z" transform="translate(-1.468 -2.038)"/><path class="b" d="M316.35,120.743a9.157,9.157,0,0,1,2.862,2.2,9.758,9.758,0,0,1,1.364,2.419,4.3,4.3,0,0,1,.189,2.288,18.661,18.661,0,0,1-1,3.414c-.193.529-.522,1.169-1.155,1.218a4.92,4.92,0,0,1-1.988-.359c-1.319-.46-2.559-1.116-3.9-1.5a17.31,17.31,0,0,1-3.117-1.394c-.47-.251-1.077-.591-.979-1.217a10.161,10.161,0,0,1,.32-1.668,15.617,15.617,0,0,1,1.146-4.057,4.93,4.93,0,0,1,1.319-1.8,3.955,3.955,0,0,1,3.362-.281,9.916,9.916,0,0,1,1.576.744Z" transform="translate(-219.758 -85.858)"/><path class="b" d="M4.067,29.235a2.285,2.285,0,0,1,1.394,1.381,6.427,6.427,0,0,1,.581,1.645c.238.819.255,1.6.421,2.4a25.408,25.408,0,0,0,1.1,3.355c.248.646.7,1.322,1.028,1.978a5.023,5.023,0,0,0,1.527,1.475,5.427,5.427,0,0,0,2.464.493,30.65,30.65,0,0,0,3.538-.069c.917-.059,1.86-.091,2.82-.108,1.723-.075,3.394-.206,5.118-.284a30.884,30.884,0,0,1,3.205,0c.989.052,2.027.163,3.058.29.953.153,1.893.264,2.849.444,1.162.294,2.311.467,3.476.783a14.85,14.85,0,0,1,3.57,1.185c1.73.842,3.535,1.645,5.075,2.6.738.434,1.534.92,1.736,1.42a5.007,5.007,0,0,1,.441,2.177c.1.512.819,1.093,1.658,1.563a18.226,18.226,0,0,1,2.445,1.652,5.761,5.761,0,0,1,1.3,1.25,4.554,4.554,0,0,1,.777,1.642,4.92,4.92,0,0,1,.486,1.661A13.487,13.487,0,0,1,54.257,60a1.912,1.912,0,0,1-.809,1.044c-.875.816-1.651,1.678-2.507,2.5a8.729,8.729,0,0,1-2.487.973c-1.315.3-2.722.529-4.145.747a16.829,16.829,0,0,1-2.944.039c-1.126-.082-2.278-.2-3.447-.346a30.1,30.1,0,0,1-3.4-.6c-2.115-.493-4.233-1.087-6.351-1.6-1.106-.261-2.223-.591-3.319-.8a4.44,4.44,0,0,0-2.843.408c-.7.3-1.335.64-2.092.907a8.92,8.92,0,0,1-2.144.454,25.545,25.545,0,0,1-2.813-.144,4.683,4.683,0,0,1-1.981-.77,2.4,2.4,0,0,0-2.063-.418,2.717,2.717,0,0,0-.924.777,7.129,7.129,0,0,1-2.81.47c-.917-.114-1.71-.767-1.749-1.185A19.328,19.328,0,0,1,4.39,59.633c-.055-.623-.261-1.28-.261-1.89-.065-1.211-.274-2.458-.346-3.669-.18-1.815-.3-3.613-.519-5.438-.153-1.009-.379-2.037-.493-3.039-.251-1.864-.64-3.76-.917-5.631-.349-1.785-.529-3.535-.78-5.3C.846,33.67.741,32.7.4,31.682a14.074,14.074,0,0,1-.369-1.544c.1-.349.525-.561.953-.764a4.962,4.962,0,0,1,1.965-.382,3.056,3.056,0,0,1,1.113.242Z" transform="translate(-0.036 -21.221)"/></g><path class="c" d="M151.206-288.224c14.092.294,26.351,9.136,30.792,24.108,7.5,38.909-35.762,55.28-59.594,78.533-20.687-26.91-61.189-33.864-59.165-73.667a35.091,35.091,0,0,1,13.369-21.184c8.911-6.818,21.324-9.162,31.929-5.087a33.975,33.975,0,0,1,14.7,10.1,35.4,35.4,0,0,1,27.96-12.8Z" transform="translate(-43.956 -10.887)"/></g></svg>