<svg xmlns="http://www.w3.org/2000/svg" width="54" height="54" viewBox="0 0 54 54"><path d="M27,0A27,27,0,1,0,54,27,27,27,0,0,0,27,0Zm0,50.625A23.625,23.625,0,1,1,50.625,27,23.625,23.625,0,0,1,27,50.625Z"/><path d="M115.438,144H81.688A1.687,1.687,0,0,0,80,145.688v5.063a5.062,5.062,0,0,0,5.063,5.063h6.75a5.062,5.062,0,0,0,5.063-5.063v-3.375h3.375v3.375a5.062,5.062,0,0,0,5.063,5.063h6.75a5.062,5.062,0,0,0,5.063-5.063v-5.063A1.687,1.687,0,0,0,115.438,144Z" transform="translate(-71.562 -128.812)"/><path d="M224,296.438v3.375A11.813,11.813,0,0,0,235.813,288h-3.375A8.438,8.438,0,0,1,224,296.438Z" transform="translate(-200.375 -257.625)"/></svg>