<svg xmlns="http://www.w3.org/2000/svg" width="59.497" height="52.278" viewBox="0 0 59.497 52.278"><g transform="translate(0 -31)"><path d="M35.452,374.434H33.472V362.5H31.726v11.934H29.746v-3.2H28v4.948h9.2v-7.976H35.452Z" transform="translate(-24.74 -292.903)"/><path d="M60,274.5h1.746v4.657H60Z" transform="translate(-53.014 -215.149)"/><path d="M95.26,271.815A1.457,1.457,0,0,1,93.8,273.27h-.058V262.5H92v15.6h1.746v-3.085H93.8a3.206,3.206,0,0,0,3.2-3.2v-5.888H95.26Z" transform="translate(-81.288 -204.546)"/><path d="M11.389,143.639a3.763,3.763,0,0,0,.255-1.362v-2.8L12.838,135H6.811a2.739,2.739,0,0,0-2.736,2.736v4.541a3.763,3.763,0,0,0,.255,1.362A7.867,7.867,0,0,0,0,150.66v8.5a3.206,3.206,0,0,0,3.2,3.2H3.26v6.113H5.007V149.845H3.26v10.77H3.2a1.457,1.457,0,0,1-1.455-1.455v-8.5a6.118,6.118,0,0,1,3.589-5.567,3.775,3.775,0,0,0,5.047,0,6.118,6.118,0,0,1,3.589,5.567v.865h1.746v-.865A7.867,7.867,0,0,0,11.389,143.639ZM9.9,142.277a2.038,2.038,0,0,1-4.075,0v-2.038H9.9Zm.2-3.784H5.822v-.757a.991.991,0,0,1,.99-.99h3.754Z" transform="translate(0 -91.891)"/><path d="M411.452,374.434h-1.979V362.5h-1.746v11.934h-1.979v-3.2H404v4.948h9.2v-7.976h-1.746Z" transform="translate(-356.961 -292.903)"/><path d="M387.389,143.639a3.763,3.763,0,0,0,.255-1.362v-2.8L388.838,135h-6.027a2.739,2.739,0,0,0-2.736,2.736v4.541a3.763,3.763,0,0,0,.255,1.362A7.867,7.867,0,0,0,376,150.66v8.5a3.206,3.206,0,0,0,3.2,3.2h.058v6.113h1.746V149.845H379.26v10.77H379.2a1.457,1.457,0,0,1-1.455-1.455v-8.5a6.118,6.118,0,0,1,3.589-5.567,3.778,3.778,0,0,0,1.65.865v2.723h1.747v-2.723a3.778,3.778,0,0,0,1.65-.865,6.118,6.118,0,0,1,3.589,5.567v.865h1.746v-.865A7.867,7.867,0,0,0,387.389,143.639Zm-1.492-1.362a2.038,2.038,0,1,1-4.075,0v-2.038H385.9Zm.2-3.784h-4.277v-.757a.991.991,0,0,1,.99-.99h3.754Z" transform="translate(-332.222 -91.891)"/><path d="M471.26,271.815a1.457,1.457,0,0,1-1.455,1.455h-.058V262.5H468v15.6h1.746v-3.085h.058a3.206,3.206,0,0,0,3.2-3.2v-5.888H471.26Z" transform="translate(-413.51 -204.546)"/><path d="M157.69,135.486V128.5h-1.746v2.62h-26.2V128.5H128v6.986h1.746v-2.62h26.2v2.62Z" transform="translate(-113.097 -86.148)"/><path d="M147.4,33.9V39.15h-1.8V40.9h5.356V39.15h-1.8V31H147.51l-2.824,3.465,1.354,1.1Z" transform="translate(-127.84)"/><path d="M225.746,34.106l2.62,3.071,2.62-3.071v6.849h1.746V31H231.34l-2.974,3.486L225.393,31H224v9.955h1.746Z" transform="translate(-197.919)"/><path d="M316.538,55.322h1.746V53.284h2.038V51.538h-2.038V49.5h-1.746v2.038H314.5v1.746h2.038Z" transform="translate(-277.882 -16.346)"/><path d="M60,244.5h1.746v1.746H60Z" transform="translate(-53.014 -188.642)"/><path d="M436,267.5h1.746v1.746H436Z" transform="translate(-385.236 -208.964)"/></g></svg>