<svg xmlns="http://www.w3.org/2000/svg" width="129.123" height="140" viewBox="0 0 129.123 140"><defs><style>.a{fill:#ef7d18;fill-rule:evenodd;}</style></defs><path class="a" d="M99.2,0c-6.157.115-12.547,2.634-12.48,13.816-18.59,8.14-31.229,27.311-33.694,43.344-.017.07-.023.091-.04.159-8.656-3.28-11-11.56-7.995-19.08a46.291,46.291,0,0,1,3.483-7.865,2.706,2.706,0,0,1,1.678-.995c4.806.244,10.589-4.964,10.589-11.6A12.032,12.032,0,0,0,48.721,5.762,11.724,11.724,0,0,0,36.776,17.5c.141,1.854.741,4.685.021,6.08-7.181,6.8-.586-1.187-15.33,17.394C6.608,59.552-.368,90.915.014,104.472c.191,2.54-.085,6.07.12,8.593,3.981.14,5.568.232,8.134.219-.477,1.884-1.579,20.21-1.754,26.716l16.747-.16c6.234-2.618-6.656-4.959-8.593-6.878.869-5.316,4.16-12.123,5.184-19.7l5.842.06c1.691,6.533,4.5,14.053,6.719,20.117,1.518,2.21.736,3.94,2.113,6.161H49.2c.643,0,19.949.6,21.632-.04s1.142-1.381.658-2.373c-.583-1.332-7.682-3.506-7.576-4.247,3.1-11.643,3.15-21.322,3.589-27.154a178.993,178.993,0,0,1,8.174,24.164c.431,2.072,1.178,6.751,1.954,9.609l17.226.06c.675,0,1.895-.62,1.834-1.675-.112-1.991-8.744-3.95-9.59-4.386-.441-.208-.606-1.42-.778-2.313-.64-7.928-2.7-15.86-4.007-23.686-1.713-7.375-3.058-14.748-4.247-22.509-.708-6.78-.352-15.453.977-20.715,1.816-6.478,3.537-12.3,8.593-18.263,1.514-1.454,3.005-.355,4.326,1.615A100.836,100.836,0,0,0,115.69,72.353c-.078.1-.188.168-.259.279a8.377,8.377,0,0,0-1.077,2.971l3.13.6a5.416,5.416,0,0,1,.638-1.854c.029-.045.072-.021.1-.06,2.214,1.691,3.486,2.576,4.785,2.911.006,0,.014.018.02.02L112.56,139.122l3.15.518,10.527-62.3a4.753,4.753,0,0,0,2.333-1.695c.52-.951,1.629-2.945-2.273-5-5.828-3.887-10.211-8.91-15.372-14.514-5.606-6.741-8.827-13.254-11.842-20.615-.879-4.741-4.64-8.7-3.449-13.617.2-.193.427-.438.638-.638a10.092,10.092,0,0,0,2.253.259c5.9.918,11.9-3.138,11.9-10.647C110.427,5.309,104.759,0,99.2,0ZM38.732,61.088c.874-.05,1.879.756,3.13,2.273,2.248,1.786,5.752,4.856,9.111,4.486-.093,1.982-.083,4.382.1,8.952.47,6.3,3.376,17.775,3.449,25.719a179.943,179.943,0,0,1-3.31,30.384c-.951,2.031-.563,3.325-2.532,3.31-.036-.023-.087-.056-.12-.08-2.849-1.238-6.643-2.726-8.652-3.509-.646-4.731-2.834-13.272-3.828-19.479a6.78,6.78,0,0,0,2.951-.219c-4.557-23.939-6.888-29.133-2.672-49.006.756-1.877,1.5-2.781,2.373-2.831Z" transform="translate(0.001)"/></svg>