<svg xmlns="http://www.w3.org/2000/svg" width="124.445" height="140" viewBox="0 0 124.445 140"><defs><style>.a{fill:#ef7d18;}</style></defs><g transform="translate(-491.575 -144.8)"><path class="a" d="M616.016,406.923a61.781,61.781,0,0,0-1.035-6.466c-4.368-19-15.173-33.077-32.272-42.388-.172-.086-.316-.23-.517-.2,0,.172.144.23.23.316a38.844,38.844,0,0,1,9.914,18.593.712.712,0,0,0,.718.632,9.189,9.189,0,0,1,7.759,10.575,9.264,9.264,0,1,1-11.869-10.259c.23-.086.431-.086.345-.46a37.732,37.732,0,0,0-15.547-22.9c-.374-.259-.517-.259-.776.172q-9.613,17.07-19.225,34.083c-.144.259-.287.517-.489.833-.948-1.782-1.868-3.477-2.788-5.173q-7.975-14.872-15.921-29.715c-.172-.316-.316-.4-.661-.287-1.15.431-2.27.862-3.42,1.264a3,3,0,0,0-.92.546,31.252,31.252,0,0,0-6.782,8.018,40.776,40.776,0,0,0-5.23,19.254c0,.316.144.345.374.374a10.407,10.407,0,0,1,3.477,1.063,15.5,15.5,0,0,1,6.179,5.92,28.694,28.694,0,0,1,4.052,15,.6.6,0,0,1-.287.517c-.776.661-1.552,1.322-2.357,1.983a.352.352,0,0,0-.115.517,1.966,1.966,0,0,1,.23,1.264,2.409,2.409,0,0,1-4.512.891,2.388,2.388,0,0,1,.316-2.759,2.312,2.312,0,0,1,2.816-.546.475.475,0,0,0,.517-.057c.661-.46,1.293-.92,1.954-1.351a.577.577,0,0,0,.287-.517,28.624,28.624,0,0,0-2.012-10.4,17.523,17.523,0,0,0-5.69-7.788,9.591,9.591,0,0,0-9.828-1.351,13.292,13.292,0,0,0-5.747,4.857,25.774,25.774,0,0,0-4.311,14.714.507.507,0,0,0,.23.431c.6.4,1.178.8,1.753,1.236a.592.592,0,0,0,.575.086,2.4,2.4,0,0,1,2.127,4.224,2.429,2.429,0,0,1-3.075-.144,2.366,2.366,0,0,1-.4-3.075c.172-.259.086-.374-.115-.546-.661-.546-1.322-1.121-1.983-1.667a.851.851,0,0,1-.345-.747,32.193,32.193,0,0,1,.718-6.409,24.772,24.772,0,0,1,4.512-10.116,13.441,13.441,0,0,1,7.1-5,.512.512,0,0,0,.46-.546,53.216,53.216,0,0,1,.833-7.414,37.027,37.027,0,0,1,5.489-13.823,39.549,39.549,0,0,1,3.506-4.368c-.2-.086-.345.086-.488.172A58.257,58.257,0,0,0,501.755,377.9a64.711,64.711,0,0,0-10.173,28.91,1.136,1.136,0,0,0,.2.8,50.007,50.007,0,0,0,7.558,8.937,57.513,57.513,0,0,0,19.628,11.869,93.029,93.029,0,0,0,27.272,5.374,127.5,127.5,0,0,0,15.892-.057,104.315,104.315,0,0,0,16.582-2.385,69.875,69.875,0,0,0,19.771-7.644,51.461,51.461,0,0,0,17.185-16.093A.677.677,0,0,0,616.016,406.923Zm-36.784,1.293c0,.345-.086.431-.431.431-1.782-.029-3.563,0-5.316-.029-.374,0-.489.086-.46.46.029.891,0,1.753,0,2.644v2.73c0,.316-.086.374-.374.374-1.494-.029-2.989-.029-4.512,0-.316,0-.4-.086-.4-.4.029-1.782,0-3.563.029-5.316,0-.4-.115-.489-.489-.489-1.782.029-3.563,0-5.316.029-.316,0-.431-.057-.4-.4.029-1.494.029-2.989,0-4.512,0-.345.115-.4.431-.4h5.374c.345,0,.431-.086.431-.431-.029-1.753,0-3.535-.029-5.288,0-.345.057-.489.46-.489,1.437.029,2.9.029,4.339,0,.4,0,.46.115.46.489-.029,1.753,0,3.535-.029,5.288,0,.345.086.431.431.431,1.782-.029,3.563,0,5.316-.029.374,0,.46.086.46.46C579.232,405.285,579.232,406.751,579.232,408.217Z" transform="translate(0 -149.213)"/><path class="a" d="M633.658,204.919A30.06,30.06,0,1,0,603.8,174.86,30.13,30.13,0,0,0,633.658,204.919Z" transform="translate(-79.974)"/><path class="a" d="M818.6,451.73a6.093,6.093,0,1,0,6.294-6.035A6.089,6.089,0,0,0,818.6,451.73Z" transform="translate(-233.045 -214.424)"/><path class="a" d="M605.7,367Z" transform="translate(-81.328 -158.345)"/><path class="a" d="M605.7,366.7c-.029.029-.057.057-.029.086.029-.029.029-.057.057-.086Z" transform="translate(-81.299 -158.131)"/><path class="a" d="M806.3,366.829a.028.028,0,0,1,.029.029l.029-.029-.029-.029A.028.028,0,0,0,806.3,366.829Z" transform="translate(-224.28 -158.202)"/></g></svg>