<svg xmlns="http://www.w3.org/2000/svg" width="53.357" height="54.639" viewBox="0 0 53.357 54.639"><g transform="translate(-6.007)"><g transform="translate(6.007 0)"><g transform="translate(0 0)"><path d="M52.882,22.136a14.648,14.648,0,0,0,3.981-6.607A13.878,13.878,0,0,0,55.95,5.037,9.308,9.308,0,0,0,50.433.463C45.6-.936,40.287,2.085,37.754,7.545A22.963,22.963,0,0,0,27.683,7.53C25.17,2,19.839-1.07,14.955.342A9.309,9.309,0,0,0,9.438,4.917a13.879,13.879,0,0,0-.913,10.491,14.631,14.631,0,0,0,4.041,6.663C8.327,25.646,6.007,30.193,6.007,34.99c0,5.315,2.82,10.288,7.942,14a32.041,32.041,0,0,0,18.737,5.646,32.041,32.041,0,0,0,18.737-5.646c5.121-3.716,7.942-8.689,7.942-14C59.364,30.222,57.072,25.7,52.882,22.136ZM49.84,2.513a7.1,7.1,0,0,1,4.241,3.553,11.737,11.737,0,0,1,.733,8.866A12.666,12.666,0,0,1,51.9,20.112a15.118,15.118,0,0,0-1.094-2.9,8.534,8.534,0,0,0,1.159-2.449,7.8,7.8,0,0,0-.522-5.9,5.394,5.394,0,0,0-3.2-2.646A6.058,6.058,0,0,0,41.759,8.87q-.935-.415-1.916-.742C41.981,3.821,46.116,1.436,49.84,2.513Zm.072,11.657a6.522,6.522,0,0,1-.361.954A17.8,17.8,0,0,0,45.83,11.28a19.617,19.617,0,0,0-2.138-1.427,3.853,3.853,0,0,1,3.951-1.582A3.268,3.268,0,0,1,49.569,9.9,5.661,5.661,0,0,1,49.912,14.171Zm-39.338.641a11.737,11.737,0,0,1,.733-8.866,7.1,7.1,0,0,1,4.241-3.553C19.315,1.3,23.472,3.73,25.595,8.106q-.973.321-1.9.73A6.062,6.062,0,0,0,17.152,6.1a5.394,5.394,0,0,0-3.2,2.646,7.8,7.8,0,0,0-.522,5.9,8.527,8.527,0,0,0,1.185,2.486A15.15,15.15,0,0,0,13.506,20,12.662,12.662,0,0,1,10.574,14.812Zm11.185-5a19.638,19.638,0,0,0-2.217,1.471,17.824,17.824,0,0,0-3.676,3.782,6.5,6.5,0,0,1-.389-1.012,5.661,5.661,0,0,1,.343-4.274A3.268,3.268,0,0,1,17.745,8.15,3.869,3.869,0,0,1,21.759,9.808Zm10.927,42.7c-9.717,0-18.134-4.051-22.108-9.91,3.459-4.4,9.656-7.355,17.222-8.206a4.992,4.992,0,0,0,3.821,2.206l0,2.084a1.913,1.913,0,0,1-3.249-.207,1.067,1.067,0,1,0-1.862,1.043A4.118,4.118,0,0,0,29,41.475v1.388a2.3,2.3,0,0,0,2.3,2.294h2.785a2.3,2.3,0,0,0,2.3-2.294V41.475a4.119,4.119,0,0,0,2.486-1.96A1.067,1.067,0,0,0,37,38.472a1.913,1.913,0,0,1-3.244.215l0-2.092a5.082,5.082,0,0,0,3.752-2.1c7.67,1,13.516,3.667,17.4,7.92C50.985,48.373,42.5,52.505,32.685,52.505Zm-1.552-11.03a4.085,4.085,0,0,0,1.555-.83,4.084,4.084,0,0,0,1.555.83v1.388a.166.166,0,0,1-.163.16H31.3a.166.166,0,0,1-.163-.16V41.475Zm1.552-6.944c-1.843,0-3.066-.821-3.066-1.364S30.842,31.8,32.685,31.8s3.066.821,3.066,1.364S34.529,34.531,32.685,34.531Zm15.438.578a38.317,38.317,0,0,0-10.367-2.73c-.518-1.57-2.56-2.711-5.071-2.711-2.446,0-4.447,1.082-5.028,2.588-7.8.86-14.309,3.861-18.215,8.364a13.005,13.005,0,0,1-1.3-5.631c0-4.462,2.368-8.718,6.669-11.984a1.067,1.067,0,0,0,.414-.717c0-.031.009-.061.013-.092v-.011a12.952,12.952,0,0,1,1.479-4.5,1.06,1.06,0,0,0,.158-.281,16.013,16.013,0,0,1,6.733-6.188.995.995,0,0,0,.282-.14,19.316,19.316,0,0,1,3.347-1.248,1.084,1.084,0,0,0,.185-.05A21.035,21.035,0,0,1,38.007,9.8a1.066,1.066,0,0,0,.193.053,19.282,19.282,0,0,1,3.341,1.259,1.022,1.022,0,0,0,.285.143,15.967,15.967,0,0,1,6.718,6.241,1.062,1.062,0,0,0,.147.267,12.933,12.933,0,0,1,1.456,4.529s0,.006,0,.009c0,.024.008.048.013.072s0,.021.006.031.013.048.02.072.006.02.009.029.017.044.026.066.009.022.014.033.019.037.028.055.014.027.022.04.019.03.029.044.02.031.031.047l.007.01.018.021c.017.021.034.041.052.061l.033.034c.016.016.033.031.05.046l.04.034.014.012c4.3,3.266,6.669,7.522,6.669,11.985A12.974,12.974,0,0,1,56,40.465,24.648,24.648,0,0,0,48.124,35.109Z" transform="translate(-6.007 0)"/></g></g><g transform="translate(20.381 11.298)"><path d="M149.518,106.674a1.067,1.067,0,0,0-1.3-.77,16.523,16.523,0,0,0-7.18,3.828,1.067,1.067,0,1,0,1.454,1.562,14.585,14.585,0,0,1,6.253-3.323A1.067,1.067,0,0,0,149.518,106.674Z" transform="translate(-140.7 -105.87)"/></g><g transform="translate(18.447 17.157)"><g transform="translate(0)"><path d="M124.24,160.946a1.067,1.067,0,0,0-1.48.3l-.022.034a1.067,1.067,0,1,0,1.5-.33Z" transform="translate(-122.576 -160.767)"/></g></g><g transform="translate(35.336 22.411)"><path d="M289.068,212.4a4.614,4.614,0,0,0-8.1,0,1.067,1.067,0,0,0,1.862,1.043,2.48,2.48,0,0,1,4.374,0,1.067,1.067,0,0,0,1.862-1.043Z" transform="translate(-280.833 -210)"/></g><g transform="translate(21.665 22.411)"><path d="M160.963,212.4a4.614,4.614,0,0,0-8.1,0,1.067,1.067,0,0,0,1.862,1.043,2.48,2.48,0,0,1,4.374,0,1.067,1.067,0,0,0,1.862-1.043Z" transform="translate(-152.729 -210)"/></g></g></svg>