<svg xmlns="http://www.w3.org/2000/svg" width="54" height="54" viewBox="0 0 54 54"><path d="M51.3,13.5h-.154A2.7,2.7,0,0,0,48.6,9.9H47.546A2.7,2.7,0,0,0,45,6.3H35.1A11.95,11.95,0,0,0,28.958,8a7.317,7.317,0,0,1-3.771,1H22.5V7.2a2.7,2.7,0,0,0-3.6-2.546V2.7a2.7,2.7,0,1,0-5.4,0v.154A2.7,2.7,0,0,0,9.9,5.4V6.454A2.7,2.7,0,0,0,6.3,9v9.9A11.95,11.95,0,0,0,8,25.042a7.317,7.317,0,0,1,1,3.771V31.5H7.2a2.7,2.7,0,0,0-2.546,3.6H2.7a2.7,2.7,0,1,0,0,5.4h.154A2.7,2.7,0,0,0,5.4,44.1H6.454A2.7,2.7,0,0,0,9,47.7h9.9A11.951,11.951,0,0,0,25.042,46a7.317,7.317,0,0,1,3.771-1H31.5v1.8a2.7,2.7,0,0,0,3.6,2.546V51.3a2.7,2.7,0,0,0,5.4,0v-.154A2.7,2.7,0,0,0,44.1,48.6V47.546A2.7,2.7,0,0,0,47.7,45V35.1A11.95,11.95,0,0,0,46,28.958a7.317,7.317,0,0,1-1-3.771V22.5h1.8a2.7,2.7,0,0,0,2.546-3.6H51.3a2.7,2.7,0,1,0,0-5.4ZM8.1,18.9V9A.9.9,0,0,1,9.9,9v6.3a.9.9,0,1,0,1.8,0V5.4a.9.9,0,0,1,1.8,0v9.9a.9.9,0,0,0,1.8,0V2.7a.9.9,0,0,1,1.8,0V15.3a.9.9,0,0,0,1.8,0V7.2a.9.9,0,1,1,1.8,0V20.7a.9.9,0,0,0,.9.9h1.744a6.161,6.161,0,0,1-2.21,4.012,3.651,3.651,0,0,0-1.333,2.8V31.5h-9V28.813a9.118,9.118,0,0,0-1.254-4.7A10.146,10.146,0,0,1,8.1,18.9Zm17.039,2.7h.452a1.856,1.856,0,0,1,1.415.688A8.077,8.077,0,0,0,32.4,25.14v.452a1.856,1.856,0,0,1-.688,1.415A8.077,8.077,0,0,0,28.86,32.4h-.452a1.856,1.856,0,0,1-1.415-.688A8.077,8.077,0,0,0,21.6,28.861v-.452a1.856,1.856,0,0,1,.688-1.415A8.076,8.076,0,0,0,25.139,21.6ZM31.5,43.2H28.813a9.117,9.117,0,0,0-4.7,1.254A10.146,10.146,0,0,1,18.9,45.9H9a.9.9,0,1,1,0-1.8h6.3a.9.9,0,1,0,0-1.8H5.4a.9.9,0,0,1,0-1.8h9.9a.9.9,0,1,0,0-1.8H2.7a.9.9,0,1,1,0-1.8H15.3a.9.9,0,1,0,0-1.8H7.2a.9.9,0,1,1,0-1.8H20.7a.9.9,0,0,0,.9-.9V30.657a6.161,6.161,0,0,1,4.012,2.21,3.651,3.651,0,0,0,2.8,1.333H31.5v9Zm14.4-8.1V45a.9.9,0,0,1-1.8,0V38.7a.9.9,0,0,0-1.8,0v9.9a.9.9,0,0,1-1.8,0V38.7a.9.9,0,0,0-1.8,0V51.3a.9.9,0,0,1-1.8,0V38.7a.9.9,0,0,0-1.8,0v8.1a.9.9,0,0,1-1.8,0V33.3a.9.9,0,0,0-.9-.9H30.657a6.161,6.161,0,0,1,2.21-4.012,3.651,3.651,0,0,0,1.333-2.8V22.5h9v2.687a9.117,9.117,0,0,0,1.254,4.7A10.147,10.147,0,0,1,45.9,35.1Zm5.4-18H38.7a.9.9,0,0,0,0,1.8h8.1a.9.9,0,0,1,0,1.8H33.3a.9.9,0,0,0-.9.9v1.744a6.161,6.161,0,0,1-4.012-2.21,3.651,3.651,0,0,0-2.8-1.333H22.5v-9h2.687a9.118,9.118,0,0,0,4.7-1.254A10.146,10.146,0,0,1,35.1,8.1H45a.9.9,0,0,1,0,1.8H38.7a.9.9,0,0,0,0,1.8h9.9a.9.9,0,0,1,0,1.8H38.7a.9.9,0,0,0,0,1.8H51.3a.9.9,0,0,1,0,1.8Z"/></svg>