<svg xmlns="http://www.w3.org/2000/svg" width="54.295" height="54" viewBox="0 0 54.295 54"><g transform="translate(-15 -16)"><path d="M155.753,265.37l-9.5,4.387A3.269,3.269,0,0,0,140.9,267.7a3.268,3.268,0,0,0-4.908-.818,3.268,3.268,0,0,0-4.908-.818,3.268,3.268,0,0,0-4.652-1.013l-.277-.075a1.028,1.028,0,0,1,.265-2.021c.024,0,.049,0,.08,0l9.08.7a.811.811,0,0,0,.288-.029l2.144-.613h.006l9.3-2.658a.818.818,0,1,0-.449-1.573l-9.3,2.656-.008,0h0a1.243,1.243,0,0,1-1.558-.949,1.3,1.3,0,0,1-.025-.248,1.245,1.245,0,0,1,.923-1.2l10.3-2.746h6.347l7.275,1.617.355-1.6-7.362-1.636a.819.819,0,0,0-.177-.019H147.1a.819.819,0,0,0-.211.028l-10.4,2.773a2.868,2.868,0,0,0-.317.107,11.272,11.272,0,0,1-3.691-.121,1.6,1.6,0,0,1,.088-3.156l1.636-.234a10.5,10.5,0,0,0,3.216-1l4.231-2.116a5.081,5.081,0,0,1,1.646-.5l3.764-.47a5.074,5.074,0,0,1,2.909.5l1.672.836a.82.82,0,0,0,.512.073l9-1.636-.293-1.61-8.73,1.587L150.7,249a6.707,6.707,0,0,0-3.844-.658l-3.764.471a6.712,6.712,0,0,0-2.175.658l-4.231,2.116a8.866,8.866,0,0,1-2.716.848l-1.636.234a3.237,3.237,0,0,0-.378,6.332,24.532,24.532,0,0,0-3.924,2.432l-1.4-.108c-.085-.007-.162-.008-.213-.008a2.663,2.663,0,0,0-1.119,5.08,3.27,3.27,0,0,0,5.084,3.853,3.267,3.267,0,0,0,4.908.818,3.268,3.268,0,0,0,4.908.818,3.27,3.27,0,0,0,5.7-.172l10.3-4.755,4.66.777.269-1.614-4.908-.818A.819.819,0,0,0,155.753,265.37ZM133.921,259.9l.482-.2a2.867,2.867,0,0,0-.055.549,2.944,2.944,0,0,0,.056.565,2.882,2.882,0,0,0,.515,1.156l-4.306-.331a22.892,22.892,0,0,1,3.308-1.734Zm-5.638,9.486a1.636,1.636,0,1,1,1.636-1.636A1.636,1.636,0,0,1,128.283,269.385Zm4.908.818a1.636,1.636,0,1,1,1.636-1.636A1.636,1.636,0,0,1,133.191,270.2Zm4.908.818a1.636,1.636,0,1,1,1.636-1.636A1.636,1.636,0,0,1,138.1,271.021Zm4.908.818a1.636,1.636,0,1,1,1.636-1.636A1.636,1.636,0,0,1,143.007,271.839Z" transform="translate(-91.886 -203.475)"/><path d="M31.543,39.723H28.68l2.989-7.174a1.636,1.636,0,0,1,3.146.629v.479l-.987.987a2.556,2.556,0,0,0,0,3.611.918.918,0,0,1,0,1.3,2.539,2.539,0,0,0-.447,3.009l1.443-.772a.924.924,0,0,1,.161-1.081,2.556,2.556,0,0,0,0-3.611.918.918,0,0,1,0-1.3l.987-.987h4.949l.988.987a.917.917,0,0,1,0,1.3,2.542,2.542,0,0,0-.455,2.993l1.448-.761a.913.913,0,0,1,.164-1.075,2.553,2.553,0,0,0,0-3.611l-.888-.888v-.823a7.118,7.118,0,0,0-7.118-7.118h-2.7V23.362a.818.818,0,0,0-.818-.818H29.907V20.908h12.3a.818.818,0,0,0,.818-.818V16.818A.818.818,0,0,0,42.211,16H22.544a.818.818,0,0,0-.818.818V20.09a.818.818,0,0,0,.818.818H25v1.636H23.362a.818.818,0,0,0-.776.559l-5.54,16.619H16v1.636H31.543Zm-8.18-22.087H41.393v1.636H23.362Zm3.272,3.272h1.636v1.636H26.635ZM23.952,24.18h6.773v1.636H28.271v1.636h6.788a5.482,5.482,0,0,1,5.482,5.482v.244h-4.09a3.272,3.272,0,0,0-6.293-1.259l-3.251,7.8H18.771Z" transform="translate(-1)"/><path d="M217.871,216.649A.911.911,0,0,1,217.6,216h-1.636a2.537,2.537,0,0,0,.748,1.805.918.918,0,0,1,0,1.3,2.539,2.539,0,0,0-.447,3.009l1.443-.772a.923.923,0,0,1,.161-1.081A2.556,2.556,0,0,0,217.871,216.649Z" transform="translate(-178.347 -177.209)"/></g></svg>