<svg xmlns="http://www.w3.org/2000/svg" width="214.349" height="140" viewBox="0 0 214.349 140"><defs><style>.a{fill:#ef7d18;}</style></defs><g transform="translate(-406.46 -228.093)"><path class="a" d="M433.515,438.339c.532-4.613.923-8.411,1.171-11.285.319-3.584.426-5.5.5-6.885.142-3.016.106-3.265.213-6.246.213-5.252.532-6.494.71-11.959a27.627,27.627,0,0,0-.177-6.21,15.114,15.114,0,0,0-2.307-6.246c-1.171-1.7-1.952-1.916-5.288-4.436a79.03,79.03,0,0,1-8.056-6.991c-3.762-3.62-4.471-4.507-5.288-5.11a7.182,7.182,0,0,0-.781-.461,27.2,27.2,0,0,0-3.513-1.845c-2.484-1.065-3.62-.781-4.081-1.774a1.628,1.628,0,0,1-.071-1.207c.71-2.058,6.6-3.265,10.575-.994,1.561.887,1.349,1.49,4.436,3.655,1.81,1.278,3.265,2.2,4.826,1.845a2.913,2.913,0,0,0,1.881-1.207c.6-.994.106-2.165-.426-3.939-.994-3.229-.355-2.449-1.349-5.713-1.065-3.478-1.561-3.62-2.2-6.317-.142-.639-.142-.71-.71-4.72a75.714,75.714,0,0,1-.852-7.594c-.142-3.336.142-4.649.923-5.075a1.8,1.8,0,0,1,1.419-.142c.71.248.781.887,1.278.923.674.071.923-.994,1.632-1.136,1.065-.213,2.342,1.774,2.7,2.378a24.914,24.914,0,0,1,2.768,7.381c1.029,3.691,2.484,7.736,2.839,7.665.284-.071-.071-2.626-.284-4.365-.319-2.413-.5-3.62-.71-4.507-.426-1.6-.781-2.271-.426-3.158a2.44,2.44,0,0,1,1.845-1.561,2.64,2.64,0,0,1,1.845.781c1.668,1.49,1.739,3.975,2.2,7.523a48.85,48.85,0,0,0,2.129,9.3c.5,1.49,1.6,4.578,2.449,4.471.71-.106.958-2.52.994-3.016.142-1.419-.142-3.3-.71-7.062-.213-1.455-.39-2.484.213-3.052a1.855,1.855,0,0,1,1.7-.355c1.881.5,2.2,4.188,3.229,9.582.284,1.455.816,3.833,1.916,8.588,1.952,8.375,3.691,12.172,4.436,18.7.532,4.755.035,6.352-.639,7.381a9.112,9.112,0,0,0-1.49,3.229,8.385,8.385,0,0,0-.213,2.449c.284,5.926,3.62,25.054,3.62,25.054a77.733,77.733,0,0,1,1.136,13.84C450.9,438.374,442.21,438.374,433.515,438.339Z" transform="translate(0 -70.424)"/><path class="a" d="M573.721,428.921a9.367,9.367,0,0,0,.035-3.371,25.476,25.476,0,0,1-.177-2.555,2.674,2.674,0,0,1,.355-1.561,1.972,1.972,0,0,1,.923-.852,1.523,1.523,0,0,1,1.313.035c.284.213.319.6.355,1.278.106,2.129.071,2.236.142,2.839.035.177,0-.035.5,2.165.106.39.142.674.39.887a1.5,1.5,0,0,0,1.526.284,1.805,1.805,0,0,0,.958-.994c.958-1.881,2.165-5.359,2.91-7.2.6-1.49,1.065-2.2,1.81-2.449a1.7,1.7,0,0,1,1.774.355c.284.355.248.923-.6,3.371-.887,2.555-1.349,3.833-1.455,4.081-.5,1.278-.887,2.094-.5,2.555a1.191,1.191,0,0,0,.923.248c.568-.036,1.136-.319,2.7-1.952.6-.639.994-1.065,1.561-1.774a24.044,24.044,0,0,0,1.774-2.626c1.171-1.881,1.561-2.7,2.555-3.194a1.65,1.65,0,0,1,1.1-.213,1.749,1.749,0,0,1,1.278,1.1c.213.674-.213,1.171-1.952,3.975a21.119,21.119,0,0,0-1.384,2.52c-.426.887-.923,1.916-.745,2.023.177.142,1.065-.887,3.087-2.981,2.413-2.484,3.229-3.123,4.01-2.945a1.686,1.686,0,0,1,1.029.887c.355.852-.213,1.845-4.187,6.885a47.569,47.569,0,0,1-3.371,4.046c-1.065.781-2.307,1.384-2.271,2.307a1.389,1.389,0,0,0,.674,1.065c.639.39,1.313.071,2.945-.39,0,0,1.6-.461,3.371-.781a9.066,9.066,0,0,1,3.123-.213,3.53,3.53,0,0,1,2.555,1.349,1.065,1.065,0,0,1,.177.852c-.213.674-1.313.852-2.023,1.029-1.455.319-2.839.958-4.329,1.313a79.471,79.471,0,0,0-7.31,3.194s-1.136.532-4.684,2.307c-2.165,1.1-2.733,1.384-3.3,2.094-.5.6-.816,1.278-1.526,4.152a29.445,29.445,0,0,0-.923,4.294c-.5,3.229-1.81,16.147-3.336,33.713l-16.4-.106c.355-2.839.852-6.707,1.7-11.249.248-1.455,1.029-5.643,2.413-11.249.674-2.839,3.868-15.579,5.359-20.689a15.567,15.567,0,0,0,.71-3.442c.177-1.632-.071-2.094.142-3.407a20.625,20.625,0,0,1,1.313-4.187,37.374,37.374,0,0,1,2.271-5.323A7.325,7.325,0,0,0,573.721,428.921Z" transform="translate(-98.472 -122.079)"/><path class="a" d="M681.3,539.289H669.234a61.694,61.694,0,0,1-1.739-11.64,8.516,8.516,0,0,0-.781-3.762,11.852,11.852,0,0,0-2.342-2.91,25.74,25.74,0,0,0-4.933-4.081,6.446,6.446,0,0,0-2.2-1.029c-1.136-.177-1.987.213-2.52-.355a1.34,1.34,0,0,1-.319-.852c.035-.745.852-1.242,1.242-1.455a4.326,4.326,0,0,1,2.52-.532c3.123.177,4.649,2.094,5.252,1.632.994-.745-1.952-6.423-2.378-7.239-1.561-2.981-2.626-6.21-4.081-9.262a1.83,1.83,0,0,1-.177-1.6,1.435,1.435,0,0,1,.994-.568,1.859,1.859,0,0,1,1.242.355c.745.5.994,1.136,1.845,2.91.213.426.532,1.065.923,1.916-.177-1.207-.355-2.129-.461-2.733a14.626,14.626,0,0,1-.248-2.094c-.071-1.455.106-1.774.248-1.916a1.49,1.49,0,0,1,1.49-.248c.71.284.994,1.136,1.739,3.9.532,1.952.568,2.129.71,2.626.816,2.8,2.413,5.891,3.087,5.713.355-.106.355-1.136.355-3.229,0-1.987.248-3.975.177-5.962a1.505,1.505,0,0,1,.355-1.207,1.313,1.313,0,0,1,1.349,0,2,2,0,0,1,.923,1.349,9.74,9.74,0,0,1,.213,3.549c0,2.023.284,1.7.284,3.726,0,1.526-.177,2.165.248,3.052.071.142.674,1.313,1.49,1.278.213,0,.461-.106.887-.568.71-.816.816-1.6,1.455-3.513.39-1.136.6-1.632,1.1-1.881a1.09,1.09,0,0,1,.994-.071c.532.213.674.852.745,1.171.106.5.106,1.029-.461,2.733-.142.426-.284.781-.568,1.6a31.142,31.142,0,0,0-1.1,2.981,8.533,8.533,0,0,0,.106,2.945c.319,2.271.639,2.449.958,4.471a12.478,12.478,0,0,1,.177,4.471c-.213,1.242-.852,1.7-.887,3.016a5.042,5.042,0,0,0,.5,2.307C678.354,530.2,679.631,533.966,681.3,539.289Z" transform="translate(-159.953 -171.374)"/><path class="a" d="M667.128,267.593c-.39-1.242,2.165-3.336,4.507-4.294a10.207,10.207,0,0,1,4.01-.781c4.613.071,5.678,3.407,10.007,3.584a7.9,7.9,0,0,0,5.5-1.7c2.058-1.845,2.2-4.9,2.2-8.3a46.29,46.29,0,0,0-.994-7.807c-.106-.568-.568-5.394-1.49-14.976a5.419,5.419,0,0,1,.71-3.584c.177-.284,1.1-1.7,2.484-1.632a2.882,2.882,0,0,1,2.058,1.278,5.072,5.072,0,0,1,.994,3.016c.071,1.632.6,4.684,1.7,10.824,1.1,6.1,2.2,6.849,2.768,6.956a.885.885,0,0,0,.568-.071c.923-.5.355-2.981,0-4.933-.461-2.733-.426-5.678-.355-11.6.036-2.307.142-3.833,1.207-4.578a2.847,2.847,0,0,1,2.768-.213c1.561.745,1.916,2.981,2.484,6.956.071.426.213,1.49.355,3.229.426,4.933.142,7.417,1.42,10.682.639,1.6.923,1.6.994,1.561.39-.071.461-1.526.71-5.784.284-5.039.284-4.755.284-4.933,0-4.152-.674-5.678.5-7.1a3.008,3.008,0,0,1,1.987-1.136,3.373,3.373,0,0,1,2.484,1.065c1.029,1.029,1.278,2.449,1.136,8.233-.071,2.236-.071,4.507-.142,6.743-.107,3.3-.177,4.968.923,5.891a3.306,3.306,0,0,0,2.484.568c.852-.142,1.7-.6,3.939-3.442,1.419-1.81,1.561-2.236,2.839-3.939,1.987-2.555,2.981-3.833,4.081-3.726,1.065.106,1.916,1.419,2.129,2.52.213,1.136-.284,1.881-1.491,4.294-2.129,4.152-1.632,3.726-2.555,5.217-1.881,2.981-2.874,2.8-3.726,4.791-.923,2.236-.639,3.939-.5,6.6a52.769,52.769,0,0,1-.923,12.03c-1.207,7.346-3.229,8.339-3.442,14.692-.036,1.065.142,2.945.5,6.672.532,5.749.958,8.127,2.271,17.992.781,5.82.674,6.991,1.49,16.75,2.307,26.864,1.561,32.719,1.561,32.719H697.789c.355-7.594.745-15.543.994-21.186,1.313-27.4,1.526-31.406.994-36.978-.568-5.855-1.881-11.746-1.49-18.134a6.83,6.83,0,0,0-.142-2.307c-.745-3.087-3.442-4.223-10.149-8.943a50.725,50.725,0,0,1-4.72-3.513c-2.413-2.2-3.265-3.8-6.139-5.891a8.477,8.477,0,0,0-3.655-1.7c-1.1-.177-1.419.035-2.768-.142C669.647,268.87,667.447,268.586,667.128,267.593Z" transform="translate(-168.138 0)"/><path class="a" d="M858.7,534.229c4.329,0,8.659.036,12.988.036a63.1,63.1,0,0,0,1.739-12.385,8.8,8.8,0,0,1,.816-4.01,12.622,12.622,0,0,1,2.449-3.123,26.367,26.367,0,0,1,5.217-4.365,6.056,6.056,0,0,1,2.342-1.1c1.207-.177,2.094.213,2.661-.39a1.291,1.291,0,0,0,.355-.887c-.035-.816-.923-1.313-1.313-1.526a4.957,4.957,0,0,0-2.661-.568c-3.3.213-4.9,2.271-5.572,1.81-1.065-.781,2.023-6.849,2.449-7.7,1.632-3.194,2.732-6.636,4.223-9.865a1.93,1.93,0,0,0,.177-1.7,1.489,1.489,0,0,0-1.065-.6,1.956,1.956,0,0,0-1.313.39c-.816.532-1.065,1.242-1.916,3.123-.213.426-.532,1.171-.958,2.058.213-1.277.355-2.271.461-2.91a16.685,16.685,0,0,0,.248-2.2c.071-1.561-.142-1.881-.284-2.058a1.524,1.524,0,0,0-1.561-.248c-.781.319-1.065,1.207-1.81,4.152-.532,2.094-.568,2.271-.71,2.8-.852,2.981-2.52,6.281-3.229,6.068-.39-.107-.39-1.207-.426-3.442-.035-2.129-.319-4.223-.248-6.352,0-.284.036-.958-.39-1.278a1.425,1.425,0,0,0-1.455,0,2.183,2.183,0,0,0-.958,1.455,10.229,10.229,0,0,0-.213,3.8c.036,2.165-.284,1.81-.248,3.939.035,1.632.213,2.307-.248,3.229-.071.177-.71,1.419-1.561,1.349-.213,0-.5-.106-.923-.6-.781-.887-.887-1.668-1.561-3.691-.426-1.207-.639-1.739-1.171-1.987a1.232,1.232,0,0,0-1.065-.071,1.742,1.742,0,0,0-.781,1.242c-.106.532-.106,1.1.5,2.91.142.461.284.816.639,1.7a20.743,20.743,0,0,1,1.171,3.158,8.72,8.72,0,0,1-.071,3.158c-.319,2.413-.639,2.591-.958,4.755a13.269,13.269,0,0,0-.142,4.755c.213,1.313.923,1.81.958,3.194a5.655,5.655,0,0,1-.5,2.449C861.929,524.718,860.545,528.728,858.7,534.229Z" transform="translate(-291.752 -166.313)"/><path class="a" d="M923.067,458.667c-.177-.568.994-1.526,2.058-1.987a5.027,5.027,0,0,1,1.845-.355c2.129.036,2.591,1.561,4.613,1.632a3.663,3.663,0,0,0,2.52-.781c.958-.852,1.029-2.271,1.029-3.833a20.258,20.258,0,0,0-.461-3.584c-.035-.248-.248-2.484-.674-6.885a2.408,2.408,0,0,1,.319-1.632,1.373,1.373,0,0,1,1.136-.745,1.412,1.412,0,0,1,.958.6,2.286,2.286,0,0,1,.461,1.384c.036.745.284,2.165.781,4.968s.994,3.158,1.278,3.194a.341.341,0,0,0,.248-.035c.426-.248.142-1.384,0-2.271a30.6,30.6,0,0,1-.177-5.323c0-1.065.071-1.774.568-2.094a1.362,1.362,0,0,1,1.277-.106c.71.355.887,1.384,1.136,3.194.035.213.106.674.177,1.49.177,2.271.071,3.407.674,4.9.284.745.426.745.461.71.177-.035.213-.71.319-2.662.142-2.307.142-2.2.142-2.271,0-1.916-.319-2.626.213-3.265a1.279,1.279,0,0,1,2.058-.035c.461.461.6,1.136.532,3.8-.035,1.029-.035,2.058-.071,3.087-.035,1.526-.071,2.271.426,2.7a1.412,1.412,0,0,0,1.136.248c.39-.071.781-.284,1.81-1.6.674-.852.71-1.029,1.313-1.81.923-1.171,1.384-1.774,1.881-1.7a1.428,1.428,0,0,1,.994,1.171c.106.532-.107.887-.674,1.987-.958,1.916-.745,1.7-1.171,2.413-.887,1.349-1.313,1.313-1.7,2.2a6.087,6.087,0,0,0-.213,3.016,24.279,24.279,0,0,1-.426,5.536c-.568,3.371-1.49,3.833-1.561,6.743,0,.5.071,1.349.213,3.052.248,2.662.426,3.726,1.065,8.269.355,2.7.319,3.229.674,7.7,1.065,12.35.71,15.047.71,15.047h-13.7c.177-3.478.319-7.133.461-9.759.6-12.6.71-14.443.461-17-.248-2.7-.852-5.394-.674-8.339a3.971,3.971,0,0,0-.071-1.065c-.355-1.419-1.6-1.952-4.649-4.117a22.621,22.621,0,0,1-2.165-1.632,22.982,22.982,0,0,0-2.839-2.7,3.382,3.382,0,0,0-1.668-.781c-.5-.071-.639,0-1.278-.071C924.238,459.27,923.209,459.128,923.067,458.667Z" transform="translate(-333.266 -137.027)"/></g></svg>