<svg xmlns="http://www.w3.org/2000/svg" width="429.307" height="182.613" viewBox="0 0 429.307 182.613"><defs><style>.a{fill:#ef7d18;}.b{fill:#1c1c1c;}</style></defs><path class="a" d="M84.807,50.967c6.465-11.9,5.021,26.481,5.021,26.481S71.67,97.6,47.8,97.6C20.634,97.6,0,76.691,0,48.834S20.634,0,47.871,0A47.393,47.393,0,0,1,82.812,14.857L71.876,25.449a32.469,32.469,0,0,0-24-10.386c-18.571,0-31.433,15.476-31.433,33.7s12.793,33.7,31.433,33.7C71.945,82.537,81.918,56.331,84.807,50.967Z"/><path class="a" d="M187.731,77.865c0,18.777-15.132,33.565-34.115,33.565S119.5,96.573,119.5,77.865c0-18.846,15.132-33.565,34.115-33.565S187.731,59.019,187.731,77.865Zm-16.439,0c0-9.973-6.741-18.5-17.677-18.5s-17.677,8.46-17.677,18.5c0,9.973,6.741,18.5,17.677,18.5S171.292,87.838,171.292,77.865Z" transform="translate(-37.307 -13.83)"/><path class="a" d="M268.013,46.263l-5.64,14.582a19.482,19.482,0,0,0-7.7-1.513c-9.836,0-14.306,8.666-14.306,8.666v41.819H224.2V45.851h15.338v9.285s5.5-10.936,17.4-10.936A37.566,37.566,0,0,1,268.013,46.263Z" transform="translate(-69.993 -13.799)"/><path class="a" d="M347.131,77.865c0,18.777-15.132,33.565-34.115,33.565S278.9,96.573,278.9,77.865c0-18.846,15.132-33.565,34.115-33.565S347.131,59.019,347.131,77.865Zm-16.439,0c0-9.973-6.741-18.5-17.677-18.5s-17.677,8.46-17.677,18.5c0,9.973,6.741,18.5,17.677,18.5s17.677-8.529,17.677-18.5Z" transform="translate(-87.07 -13.83)"/><path class="a" d="M441.338,68.411v41.406H425.175V72.469c0-9.148-5.64-13.068-12.656-13.068-8.391,0-12.656,8.254-12.656,8.254v42.163L383.7,115.594V45.851h15.063v9.285A22.141,22.141,0,0,1,417.884,44.2C430.265,44.269,441.338,53,441.338,68.411Z" transform="translate(-119.788 -13.799)"/><path class="a" d="M533.983,68.167v41.681H518.989v-8.116s-6.6,9.7-21.047,9.7c-12.037,0-23.042-7.841-23.042-21.46,0-12.243,11.211-21.184,25.1-21.184,11.693,0,17.814,4.608,17.814,4.608V69.749c0-8.322-8.116-11.074-13.756-11.074-9.285,0-19.121,4.746-19.121,4.746l-5.227-13.343s11.9-5.778,25.243-5.778C523.184,44.3,533.983,53.585,533.983,68.167ZM517.819,90.521v-6.6a32.271,32.271,0,0,0-14.582-3.233c-5.021,0-11.9,2.132-11.9,9.01,0,6.741,6.6,8.254,11.624,8.254A19.045,19.045,0,0,0,517.819,90.521Z" transform="translate(-148.26 -13.83)"/><path class="a" d="M593.857,223.478a9.387,9.387,0,0,0-13.275,13.275l13.275,13.275,13.275-13.275a9.364,9.364,0,0,0-.344-13.275A9.26,9.26,0,0,0,593.857,223.478Z" transform="translate(-180.416 -68.928)"/><g transform="translate(82.675 77.516)"><path class="b" d="M176.669,126h16.163v94.367H176.669V179.787H136.363v40.581H120.2V126h16.163v38.448h40.306Z" transform="translate(-120.2 -116.852)"/><path class="b" d="M298.372,201.259c0,1.238,0,3.645-.138,6.053H250.57c1.238,5.64,7.841,12.931,17.952,12.931a25.718,25.718,0,0,0,17.539-6.465l8.116,12.105a40.462,40.462,0,0,1-25.586,9.148c-19.4,0-34.39-14.857-34.39-33.565S247.819,167.9,266.252,167.9C283.722,167.9,298.372,181.519,298.372,201.259Zm-16.163-5.709c-.275-5.5-5.365-12.931-16.026-12.931-10.386,0-15.132,7.291-15.613,12.931Z" transform="translate(-155.79 -129.933)"/><path class="b" d="M490.441,201.259c0,1.238,0,3.645-.138,6.053H442.57c1.238,5.64,7.841,12.931,17.952,12.931a25.718,25.718,0,0,0,17.539-6.465l8.116,12.105a40.462,40.462,0,0,1-25.587,9.148c-19.4,0-34.39-14.857-34.39-33.565S439.819,167.9,458.321,167.9C475.791,167.9,490.441,181.519,490.441,201.259Zm-16.164-5.709c-.275-5.5-5.365-12.931-16.026-12.931-10.386,0-15.132,7.291-15.613,12.931Z" transform="translate(-215.731 -129.933)"/><path class="b" d="M409.632,152.387v-.069H394.019V137.461c0-7.979,5.227-9.7,8.391-9.7a10.974,10.974,0,0,1,6.465,1.926l6.053-13.619s-5.3-3.37-14.169-3.37c-10.386,0-22.9,6.19-22.9,24v15.613H365.2V166.9h12.656v49.316h16.164V166.9h6.121A32.252,32.252,0,0,1,409.632,152.387Z" transform="translate(-196.687 -112.7)"/><path class="b" d="M568.913,169.995l-5.64,14.582a18.3,18.3,0,0,0-7.7-1.444c-9.836,0-14.306,8.6-14.306,8.6v41.819H525.1v-63.9h15.338v9.285S545.941,168,557.84,168A32.153,32.153,0,0,1,568.913,169.995Z" transform="translate(-246.607 -129.964)"/><g transform="translate(148.012 1.578)"><path class="b" d="M335.8,138.5v85.77h16.164V154.595h0A16.13,16.13,0,0,1,335.8,138.5Z" transform="translate(-335.521 -122.332)"/><path class="b" d="M359.3,115Z" transform="translate(-342.857 -114.996)"/><path class="b" d="M351.837,115a16.132,16.132,0,0,0-.619,32.258h.688V115Z" transform="translate(-335.394 -114.994)"/></g></g></svg>